<?xml version="1.0" encoding="UTF-8"?>
<svg width="24px" height="24px" viewBox="0 0 24 24" version="1.1" xmlns="http://www.w3.org/2000/svg">
    <defs>
        <linearGradient id="playStoreGradient" x1="0%" y1="0%" x2="100%" y2="100%">
            <stop offset="0%" style="stop-color:#00C4CC"/>
            <stop offset="50%" style="stop-color:#00B4E6"/>
            <stop offset="100%" style="stop-color:#00A4F4"/>
        </linearGradient>
    </defs>
    <path d="M3.609 1.814L13.792 12 3.61 22.186c-.28.28-.657.423-1.033.423-.376 0-.754-.143-1.033-.423-.558-.558-.558-1.508 0-2.066L9.657 12 1.544 3.88c-.558-.558-.558-1.508 0-2.066.558-.558 1.508-.558 2.066 0zm4.235 0l10.183 10.186L7.844 22.186c-.28.28-.657.423-1.033.423-.376 0-.754-.143-1.033-.423-.558-.558-.558-1.508 0-2.066L13.89 12 5.778 3.88c-.558-.558-.558-1.508 0-2.066.558-.558 1.508-.558 2.066 0z" fill="url(#playStoreGradient)"/>
</svg> 